# File created by Blade
# Date/Time:  Tue Sep 30 19:35:54 2014
#---------------------------------------------------------
:version 1.10
:name HOM
:units
  mass 1.0
  length 1.000000
  angle deg
:documentation
     Acclaim Skeleton File
:root
   axis xyz
   order TX TY TZ RX RY RZ
   position 0.000000 0.000000 0.000000
   orientation 0 0 0
:bonedata
   begin
      id 1
      name Spine_dum
      direction 0.000000 1.000000 0.000000
      length 3.241213
      axis 0.0 0.0 0.0 xyz
   end
   begin
      id 2
      name LeftUpLeg_dum
      direction 1.000000 0.000000 0.000000
      length 3.434019
      axis 0.0 0.0 0.0 xyz
   end
   begin
      id 3
      name RightUpLeg_dum
      direction -1.000000 0.000000 0.000000
      length 3.434019
      axis 0.0 0.0 0.0 xyz
   end
   begin
      id 4
      name Spine
      direction 0.000000 1.000000 0.000000
      length 0.000000
      axis 0.0 0.0 0.0 xyz
      dof rx ry rz
   end
   begin
      id 5
      name Spine_dum1
      direction 0.000000 1.000000 0.000000
      length 18.382958
      axis 0.0 0.0 0.0 xyz
   end
   begin
      id 6
      name Spine_dum2
      direction 0.000000 1.000000 0.000000
      length 12.828261
      axis 0.0 0.0 0.0 xyz
   end
   begin
      id 7
      name Spine_dum3
      direction 0.000000 1.000000 0.000000
      length 12.828261
      axis 0.0 0.0 0.0 xyz
   end
   begin
      id 8
      name Head
      direction 0.000000 1.000000 0.000000
      length 4.527550
      axis 0.0 0.0 0.0 xyz
      dof rx ry rz
   end
   begin
      id 9
      name LeftShoulder
      direction 1.000000 0.000000 0.000000
      length 7.748055
      axis 0.0 0.0 -90.0 xyz
      dof rx ry rz
   end
   begin
      id 10
      name LeftArm
      direction 1.000000 0.000000 0.000000
      length 10.635614
      axis 0.0 0.0 -90.0 xyz
      dof rx ry rz
   end
   begin
      id 11
      name LeftForeArm
      direction 1.000000 0.000000 0.000000
      length 8.346755
      axis 0.0 0.0 -90.0 xyz
      dof ry rz rx
   end
   begin
      id 12
      name LeftHand
      direction 0.000000 0.000000 0.000000
      length 0.000000
      axis 0.0 0.0 -90.0 xyz
      dof rx ry rz
   end
   begin
      id 13
      name LeftHand_dum1
      direction 0.000000 0.000000 0.000000
      length 0.000000
      axis 0.0 0.0 -90.0 xyz
   end
   begin
      id 14
      name LeftHand_dum2
      direction 1.000000 0.000000 0.000000
      length 3.937000
      axis 0.0 0.0 -90.0 xyz
   end
   begin
      id 15
      name LeftHandThumb1
      direction 0.000000 0.000000 1.000000
      length 3.937000
      axis 0.0 0.0 -90.0 xyz
      dof rx rz ry
   end
   begin
      id 16
      name RightShoulder
      direction -1.000000 0.000000 0.000000
      length 7.748055
      axis 0.0 0.0 90.0 xyz
      dof rx ry rz
   end
   begin
      id 17
      name RightArm
      direction -1.000000 0.000000 0.000000
      length 10.635614
      axis 0.0 0.0 90.0 xyz
      dof rx ry rz
   end
   begin
      id 18
      name RightForeArm
      direction -1.000000 0.000000 0.000000
      length 8.346755
      axis 0.0 0.0 90.0 xyz
      dof ry rz rx
   end
   begin
      id 19
      name RightHand
      direction 0.000000 0.000000 0.000000
      length 0.000000
      axis 0.0 0.0 90.0 xyz
      dof rx ry rz
   end
   begin
      id 20
      name RightHand_dum1
      direction 0.000000 0.000000 0.000000
      length 0.000000
      axis 0.0 0.0 90.0 xyz
   end
   begin
      id 21
      name RightHand_dum2
      direction -1.000000 0.000000 0.000000
      length 3.937000
      axis 0.0 0.0 90.0 xyz
   end
   begin
      id 22
      name RightHandThumb1
      direction 0.000000 0.000000 1.000000
      length 3.937000
      axis 0.0 0.0 90.0 xyz
      dof rx rz ry
   end
   begin
      id 23
      name LeftUpLeg
      direction 0.000000 -1.000000 0.000000
      length 15.713025
      axis 0.0 0.0 0.0 xyz
      dof rx ry rz
   end
   begin
      id 24
      name LeftLeg
      direction 0.000000 -1.000000 0.000000
      length 14.435119
      axis 0.0 0.0 0.0 xyz
      dof rx ry rz
   end
   begin
      id 25
      name LeftFoot
      direction 0.000000 -0.258819 0.965926
      length 4.938895
      axis 15.0 0.0 0.0 xyz
      dof rx ry rz
   end
   begin
      id 26
      name LeftToeBase
      direction 0.000000 0.000000 1.000000
      length 2.952750
      axis 0.0 0.0 0.0 xyz
      dof rx ry rz
   end
   begin
      id 27
      name RightUpLeg
      direction 0.000000 -1.000000 0.000000
      length 15.713025
      axis 0.0 0.0 0.0 xyz
      dof rx ry rz
   end
   begin
      id 28
      name RightLeg
      direction 0.000000 -1.000000 0.000000
      length 14.435119
      axis 0.0 0.0 0.0 xyz
      dof rx ry rz
   end
   begin
      id 29
      name RightFoot
      direction 0.000000 -0.258819 0.965926
      length 4.938895
      axis 15.0 0.0 0.0 xyz
      dof rx ry rz
   end
   begin
      id 30
      name RightToeBase
      direction 0.000000 0.000000 1.000000
      length 2.952750
      axis 0.0 0.0 0.0 xyz
      dof rx ry rz
   end
:hierarchy
   begin
      root Spine_dum LeftUpLeg_dum RightUpLeg_dum
      Spine_dum Spine
      LeftUpLeg_dum LeftUpLeg
      RightUpLeg_dum RightUpLeg
      Spine Spine_dum1 Spine_dum2 Spine_dum3
      Spine_dum1 Head
      Spine_dum2 LeftShoulder
      Spine_dum3 RightShoulder
      LeftShoulder LeftArm
      LeftArm LeftForeArm
      LeftForeArm LeftHand
      LeftHand LeftHand_dum1 LeftHand_dum2
      LeftHand_dum1 LeftHandThumb1
      RightShoulder RightArm
      RightArm RightForeArm
      RightForeArm RightHand
      RightHand RightHand_dum1 RightHand_dum2
      RightHand_dum1 RightHandThumb1
      LeftUpLeg LeftLeg
      LeftLeg LeftFoot
      LeftFoot LeftToeBase
      RightUpLeg RightLeg
      RightLeg RightFoot
      RightFoot RightToeBase
   end

# File created by Blade
# Date/Time:  Tue Sep 23 19:15:59 2014
# Frame Rate: 120.000 fps
#------------------------------------------------------
:FULLY-SPECIFIED
:DEGREES
848
root -0.208699 32.359657 -5.977505 35.382271 -19.953134 -20.072940
Spine -28.148079 -15.420002 18.991700
Head -1.562023 -7.730153 -0.210572
LeftShoulder 4.271995 33.835517 36.101540
LeftArm 64.884192 11.386847 -67.444521
LeftForeArm 68.090322 -0.000000 74.981684
LeftHand 43.823704 -0.000000 -5.914388
LeftHandThumb1 -26.253704 0.000000 33.147579
RightShoulder -4.477540 -34.188868 -25.910443
RightArm 75.180101 -1.339284 52.488919
RightForeArm 23.141588 -0.000000 91.005401
RightHand -11.119920 -0.000000 31.065561
RightHandThumb1 -24.326973 -0.000000 -32.862282
LeftUpLeg -43.147485 12.116891 8.769371
LeftLeg 32.804468 -0.000000 -0.000000
LeftFoot -15.860593 14.058349 6.989817
LeftToeBase -4.543904 -0.000000 0.000000
RightUpLeg -169.959186 37.435543 24.643537
RightLeg 101.594268 -0.000000 -0.000000
RightFoot 39.443613 -20.745339 14.805173
RightToeBase 47.828519 -0.000000 -0.000000
849
root -0.194143 32.386543 -5.969037 35.637113 -20.044804 -20.230588
Spine -28.296851 -15.290517 19.173142
Head -1.475171 -7.633684 -0.094799
LeftShoulder 4.356891 33.930514 35.987483
LeftArm 64.906556 11.587372 -67.735990
LeftForeArm 67.966666 -0.000000 74.349317
LeftHand 43.654204 -0.000000 -5.274993
LeftHandThumb1 -26.253704 0.000000 33.147579
RightShoulder -4.261116 -34.233589 -25.917343
RightArm 75.335382 -1.364668 52.638414
RightForeArm 23.148425 -0.000000 90.610351
RightHand -11.191705 -0.000000 31.134525
RightHandThumb1 -24.326973 -0.000000 -32.862282
LeftUpLeg -43.124617 11.995519 8.918572
LeftLeg 32.478680 -0.000000 -0.000000
LeftFoot -15.473043 14.411752 7.415441
LeftToeBase -4.979694 -0.000000 0.000000
RightUpLeg -169.823837 37.230020 24.740561
RightLeg 101.819662 -0.000000 -0.000000
RightFoot 39.470328 -20.703601 14.851372
RightToeBase 47.839320 -0.000000 -0.000000
850
root -0.173472 32.417550 -5.965152 36.004548 -20.071778 -20.321291
Spine -28.608115 -15.155672 19.392179
Head -1.393419 -7.551743 -0.049008
LeftShoulder 4.490202 34.056571 35.833459
LeftArm 64.957410 11.732750 -67.975730
LeftForeArm 67.720585 -0.000000 73.754493
LeftHand 43.445977 -0.000000 -4.751594
LeftHandThumb1 -26.253704 0.000000 33.147579
RightShoulder -4.096583 -34.243436 -25.928861
RightArm 75.501849 -1.427911 52.790651
RightForeArm 23.198987 0.000000 90.206645
RightHand -11.259511 -0.000000 31.361948
RightHandThumb1 -24.326973 -0.000000 -32.862282
LeftUpLeg -43.246524 11.796572 9.020851
LeftLeg 32.092136 -0.000000 -0.000000
LeftFoot -15.070061 14.765988 7.917345
LeftToeBase -5.040010 -0.000000 0.000000
RightUpLeg -169.889480 36.929706 24.706074
RightLeg 102.019433 -0.000000 -0.000000
RightFoot 39.528869 -20.528687 14.881061
RightToeBase 47.959508 -0.000000 -0.000000
851
root -0.153330 32.451917 -5.963064 36.317433 -20.080558 -20.447003
Spine -28.841894 -15.023773 19.629271
Head -1.302303 -7.459813 -0.004297
LeftShoulder 4.678988 34.257999 35.654166
LeftArm 65.079379 11.784886 -68.048686
LeftForeArm 67.685849 -0.000000 73.216171
LeftHand 42.994626 -0.000000 -3.902154
LeftHandThumb1 -26.253704 0.000000 33.147579
RightShoulder -3.945875 -34.223841 -25.888437
RightArm 75.671018 -1.450355 52.889493
RightForeArm 23.066711 0.000000 89.764287
RightHand -11.329250 -0.000000 31.547556
RightHandThumb1 -24.326973 -0.000000 -32.862282
LeftUpLeg -43.334350 11.626020 9.158601
LeftLeg 31.749057 -0.000000 -0.000000
LeftFoot -14.589493 15.096082 8.263417
LeftToeBase -5.434029 -0.000000 0.000000
RightUpLeg -169.848919 36.590605 24.762188
RightLeg 102.233943 -0.000000 -0.000000
RightFoot 39.525932 -20.325273 14.859378
RightToeBase 47.964952 -0.000000 -0.000000
852
root -0.138915 32.486086 -5.962089 36.464434 -20.052899 -20.547623
Spine -28.909816 -14.985993 19.810555
Head -1.270156 -7.324322 0.084032
LeftShoulder 4.858911 34.521529 35.426679
LeftArm 65.311182 11.735306 -68.108220
LeftForeArm 67.726935 -0.000000 72.674492
LeftHand 42.908270 0.000000 -3.532403
LeftHandThumb1 -26.253704 0.000000 33.147579
RightShoulder -3.856335 -34.156470 -25.800272
RightArm 75.838646 -1.532349 52.987949
RightForeArm 22.925527 0.000000 89.291757
RightHand -11.381499 -0.000000 31.757730
RightHandThumb1 -24.326973 -0.000000 -32.862282
LeftUpLeg -43.323660 11.442883 9.313040
LeftLeg 31.501037 -0.000000 -0.000000
LeftFoot -14.156636 15.329923 8.472970
LeftToeBase -5.650510 -0.000000 0.000000
RightUpLeg -169.678136 36.134009 24.858533
RightLeg 102.444176 -0.000000 -0.000000
RightFoot 39.509825 -20.117152 14.761715
RightToeBase 48.064159 -0.000000 -0.000000
853
root -0.128448 32.524460 -5.969871 36.654630 -20.010853 -20.741085
Spine -28.942948 -14.915137 20.049347
Head -1.289474 -7.176382 0.252849
LeftShoulder 5.067104 34.790594 35.170513
LeftArm 65.635208 11.608671 -68.129963
LeftForeArm 67.700506 -0.000000 72.091456
LeftHand 42.772427 -0.000000 -3.366980
LeftHandThumb1 -26.253704 0.000000 33.147579
RightShoulder -3.754326 -34.005752 -25.704956
RightArm 75.905913 -1.661491 53.088046
RightForeArm 22.764639 -0.000000 88.847759
RightHand -11.349428 -0.000000 31.914273
RightHandThumb1 -24.326973 -0.000000 -32.862282
LeftUpLeg -43.399232 11.434421 9.483870
LeftLeg 31.353873 -0.000000 -0.000000
LeftFoot -13.738509 15.470032 8.688744
LeftToeBase -5.841483 -0.000000 0.000000
RightUpLeg -169.436044 35.740545 25.063052
RightLeg 102.640642 -0.000000 -0.000000
RightFoot 39.425449 -19.932204 14.557184
RightToeBase 48.233348 -0.000000 -0.000000
